# xmcd
#
# Track frame offsets: 
#        150
#        13152
#        26452
#        39642
#        54552
#        67152
#        79357
#        93132
#        105305
#        116467
#        129065
#        141117
#        153507
#        166305
#        181909
#        194922
#        207780
#        219330
#        233625
#        245742
#        259365
#        270975
#        281592
#        295715
#        307917
#        319470
#        328282
#
# Disc length: 4516 seconds
#
# Revision: 4
# Processed by: cddbd v1.5.2PL0 Copyright (c) Steve Scherf et al.
# Submitted via: ExactAudioCopy v0.99pb4
#
DISCID=8a11a21b
DTITLE=Various Artist - Blues Classics 1927-1969 [CD2, 1940-1960)
DYEAR=1996
DGENRE=Blues
TTITLE0=Big Joe Turner and His Fly Cats - Piney Brown Blues
TTITLE1=Jay McShann with Walter Brown - Confessin' The Blues
TTITLE2=Louis Jordan and His Tympany Five - I'm Gonna Leave You On The O
TTITLE2=utskirts Of Town
TTITLE3=Dinah Washington with Lionel Hampton - Blow Top Blues
TTITLE4=Louis Jordan and His Tympany Five - Let The Good Times Roll
TTITLE5=Muddy Waters - I Can't Be Satisfied
TTITLE6=Robert Nighthalk - Sweet Black Angel
TTITLE7=Memphis Slim - Mother Earth
TTITLE8=Cecil Gant - Playin' Myself The Blues
TTITLE9=Jimmy Rogers - That's All Right
TTITLE10=Muddy Waters - Long Distance Call
TTITLE11=Little Walter - Juke
TTITLE12=Big Mama Thornton - Hound Dog
TTITLE13=Eddie Boyd - 24 Hours
TTITLE14=Lightnin' Hopkins - I'm Wild About You Baby
TTITLE15=Muddy Waters - I'm Your Hoochie Coochie Man
TTITLE16=Gatemouth Brown - Okie Dokie Stomp
TTITLE17=Lowell Fulson - Reconsider Baby
TTITLE18=Little Walter - My Babe
TTITLE19=Bo Diddley - I'm A Man
TTITLE20=Sonny Boy Williamson - Don't Start Me To Talkin'
TTITLE21=Big Walter Price - Pack Fair And Square
TTITLE22=Howlin' Wolf - Smokestack Lightning
TTITLE23=Larry Davis - Texas Flood
TTITLE24=Fenton Robinson - As The Years Go Passing By
TTITLE25=Sonny Boy Williamson - Checkin' Up On My Baby
TTITLE26=Buddy Guy - First Time I Met The Blues
EXTD=YEAR: 1996
EXTT0=
EXTT1=
EXTT2=
EXTT3=
EXTT4=
EXTT5=
EXTT6=
EXTT7=
EXTT8=
EXTT9=
EXTT10=
EXTT11=
EXTT12=
EXTT13=
EXTT14=
EXTT15=
EXTT16=
EXTT17=
EXTT18=
EXTT19=
EXTT20=
EXTT21=
EXTT22=
EXTT23=
EXTT24=
EXTT25=
EXTT26=
PLAYORDER=
